#!OML:ASF H:\Terrain\Walking\May29\JustinRory\Justin.ASF
:FULLY-SPECIFIED
:DEGREES
392
root 7.23378 18.0534 7.1261 -177.11 7.23708 180.816
lowerback 1.42294 1.40599 -1.99417
upperback 0.862545 1.86524 0.0407842
thorax 0.0213359 0.931889 1.1319
lowerneck -15.9147 -4.83365 -12.3736
upperneck 11.8048 -4.43029 4.83981
head 6.59488 -2.29686 3.09386
rclavicle -1.88597e-014 -5.96354e-016
rhumerus -30.9317 -15.8395 -80.1663
rradius 24.5984
rwrist -5.54615
rhand -12.5087 23.0283
rfingers 7.12502
rthumb 13.5668 -6.50973
lclavicle -1.88597e-014 -5.96354e-016
lhumerus -32.4309 15.4077 77.0036
lradius 28.6724
lwrist -10.3379
lhand 1.7725 38.0963
lfingers 7.12502
lthumb 27.287 66.1419
rfemur -3.37089 3.55002 13.0353
rtibia 14.0542
rfoot -9.44829 -8.65106
rtoes -1.76566
lfemur -7.71236 -0.185208 -21.7553
ltibia 22.3688
lfoot -12.9507 3.50282
ltoes -7.59412
393
root 7.24976 18.0744 7.11996 -176.402 7.52922 181.076
lowerback 0.703738 1.47261 -2.07163
upperback 0.652158 1.9604 0.188159
thorax 0.197586 0.975628 1.34135
lowerneck -15.9731 -4.82823 -12.4344
upperneck 11.9887 -4.37563 4.69968
head 6.65828 -2.28665 3.06311
rclavicle -2.31087e-015 5.76476e-015
rhumerus -30.9971 -15.3845 -80.1846
rradius 24.6659
rwrist -5.82196
rhand -12.476 22.8604
rfingers 7.12502
rthumb 13.5982 -6.6755
lclavicle -2.31087e-015 5.76476e-015
lhumerus -32.3759 15.3763 77.0275
lradius 28.6088
lwrist -10.4543
lhand 1.74314 38.0498
lfingers 7.12502
lthumb 27.2589 66.0998
rfemur -4.06029 3.85934 13.3438
rtibia 13.8976
rfoot -9.30482 -8.78642
rtoes -2.07601
lfemur -8.39034 0.0249761 -21.4092
ltibia 22.4111
lfoot -13.2004 3.48574
ltoes -7.80613
394
root 7.21968 18.0626 7.11893 -176.715 6.65678 181.31
lowerback 1.06083 1.18066 -1.38308
upperback 0.772218 1.57247 0.211086
thorax 0.152982 0.784831 0.975925
lowerneck -16.0391 -4.85286 -12.5696
upperneck 12.125 -4.36417 4.68377
head 6.71584 -2.29004 3.07996
rclavicle -2.27111e-014 -1.19271e-015
rhumerus -31.0407 -14.6373 -80.2876
rradius 24.9373
rwrist -6.57762
rhand -12.683 22.5618
rfingers 7.12502
rthumb 13.3987 -6.98732
lclavicle -2.27111e-014 -1.19271e-015
lhumerus -32.137 15.4443 77.0598
lradius 28.4979
lwrist -10.7331
lhand 2.08024 38.418
lfingers 7.12502
lthumb 27.5813 66.417
rfemur -3.42222 3.09161 13.5747
rtibia 13.7039
rfoot -9.21839 -8.82163
rtoes -2.23276
lfemur -8.1833 -0.633866 -21.2153
ltibia 22.5109
lfoot -13.1149 3.36494
ltoes -8.05651
395
root 7.20692 18.0587 7.12068 -176.76 6.49047 181.332
lowerback 1.10147 1.13553 -1.18335
upperback 0.800887 1.51425 0.176151
thorax 0.167174 0.756586 0.828525
lowerneck -15.888 -4.89209 -12.5092
upperneck 12.0428 -4.42078 4.51555
head 6.66405 -2.32734 3.01034
rclavicle -3.67255e-014 4.57205e-015
rhumerus -31.0619 -14.4276 -80.3421
rradius 25.1509
rwrist -6.89958
rhand -12.947 22.3112
rfingers 7.12502
rthumb 13.1443 -7.2545
lclavicle -3.67255e-014 4.57205e-015
lhumerus -31.9599 15.4752 77.0318
lradius 28.4653
lwrist -10.885
lhand 2.32692 38.7155
lfingers 7.12502
lthumb 27.8172 66.6765
rfemur -3.28424 3.0406 13.5698
rtibia 13.555
rfoot -9.11816 -8.9129
rtoes -2.40592
lfemur -8.24656 -0.73967 -21.212
ltibia 22.618
lfoot -13.1142 3.28485
ltoes -6.55065
396
root 7.20645 18.0657 7.12598 -176.729 6.91613 181.3
lowerback 1.11281 1.2732 -1.32182
upperback 0.796821 1.69641 0.202947
thorax 0.147699 0.847227 0.931085
lowerneck -15.7385 -4.88193 -12.2801
upperneck 11.8691 -4.40004 4.07028
head 6.56626 -2.33857 2.83211
rclavicle 4.5472e-015 -1.19271e-015
rhumerus -30.9 -14.4059 -80.3399
rradius 25.08
rwrist -6.83324
rhand -12.9665 22.4683
rfingers 7.12502
rthumb 13.1255 -7.09867
lclavicle 4.5472e-015 -1.19271e-015
lhumerus -31.8219 15.6083 77.0615
lradius 28.4983
lwrist -10.98
lhand 2.21484 38.7418
lfingers 7.12502
lthumb 27.71 66.7201
rfemur -3.48321 3.32533 13.4998
rtibia 13.6067
rfoot -9.14383 -8.8291
rtoes -2.46904
lfemur -8.29018 -0.628664 -21.2517
ltibia 22.6739
lfoot -13.2271 3.42707
ltoes -3.22214
397
root 7.21011 18.0658 7.13155 -176.874 7.41343 181.195
lowerback 1.26013 1.41169 -1.60953
upperback 0.858899 1.87833 0.247832
thorax 0.113486 0.937717 1.13281
lowerneck -15.7958 -4.78681 -12.2224
upperneck 11.8673 -4.22345 3.78073
head 6.55373 -2.27125 2.74711
rclavicle 1.12189e-014 1.0138e-014
rhumerus -30.6593 -14.2837 -80.3278
rradius 25.0024
rwrist -6.87489
rhand -12.7491 22.4203
rfingers 7.12502
rthumb 13.335 -7.13305
lclavicle 1.12189e-014 1.0138e-014
lhumerus -31.6386 15.8691 77.1181
lradius 28.5375
lwrist -11.1613
lhand 2.12813 38.7531
lfingers 7.12502
lthumb 27.6271 66.7447
rfemur -3.59436 3.53071 13.3619
rtibia 13.8434
rfoot -9.23052 -8.58723
rtoes -2.16449
lfemur -8.07411 -0.457885 -21.3806
ltibia 22.6096
lfoot -13.2524 3.62922
ltoes -1.18543
398
root 7.21091 18.0621 7.1345 -176.922 7.6604 181.167
lowerback 1.3203 1.44599 -1.66151
upperback 0.838472 1.92222 0.197066
thorax 0.057555 0.960163 1.10731
lowerneck -15.9406 -4.66696 -12.3193
upperneck 12.1879 -4.04138 3.9118
head 6.6718 -2.18371 2.82433
rclavicle -9.42985e-015 -4.96962e-015
rhumerus -30.5435 -14.1619 -80.5363
rradius 25.0042
rwrist -6.9929
rhand -12.7771 22.2002
rfingers 7.12502
rthumb 13.3081 -7.35485
lclavicle -9.42985e-015 -4.96962e-015
lhumerus -31.514 15.9493 76.9607
lradius 28.4636
lwrist -11.2589
lhand 2.13255 38.566
lfingers 7.12502
lthumb 27.6314 66.557
rfemur -3.74809 3.68678 13.3267
rtibia 14.1277
rfoot -9.16341 -8.51643
rtoes -1.81089
lfemur -7.95912 -0.390339 -21.432
ltibia 22.5099
lfoot -13.2215 3.84754
ltoes -2.40735
399
root 7.21089 18.0581 7.13642 -176.845 7.71393 181.285
lowerback 1.27258 1.41552 -1.54967
upperback 0.782849 1.88187 0.173967
thorax 0.0328883 0.940378 1.02212
lowerneck -16.2186 -4.63301 -12.3013
upperneck 12.7992 -3.96833 3.95529
head 6.91191 -2.15586 2.84192
rclavicle 8.24956e-015 2.38542e-015
rhumerus -30.4573 -13.9784 -80.8209
rradius 25.1031
rwrist -7.0925
rhand -13.0002 22.2702
rfingers 7.12502
rthumb 13.093 -7.29879
lclavicle 8.24956e-015 2.38542e-015
lhumerus -31.3739 16.0012 76.7821
lradius 28.3013
lwrist -11.3717
lhand 2.18188 38.4262
lfingers 7.12502
lthumb 27.6785 66.4096
rfemur -3.97128 3.7743 13.4657
rtibia 14.4067
rfoot -9.12193 -8.57939
rtoes -1.69815
lfemur -7.98501 -0.274584 -21.3138
ltibia 22.3918
lfoot -13.1407 3.94414
ltoes -6.04366
400
root 7.21055 18.0554 7.13582 -176.868 7.73648 181.434
lowerback 1.29569 1.3708 -1.45066
upperback 0.788554 1.82304 0.232056
thorax 0.028663 0.911192 1.02646
lowerneck -16.4744 -4.61559 -12.205
upperneck 13.3991 -3.88359 3.72042
head 7.13863 -2.13997 2.7572
rclavicle -2.9122e-014 -1.78906e-015
rhumerus -30.3274 -13.7827 -80.9426
rradius 25.2606
rwrist -7.10599
rhand -13.0738 22.3384
rfingers 7.12502
rthumb 13.0221 -7.2351
lclavicle -2.9122e-014 -1.78906e-015
lhumerus -31.1749 16.1572 76.7541
lradius 28.17
lwrist -11.4557
lhand 2.10185 38.6961
lfingers 7.12502
lthumb 27.602 66.6917
rfemur -3.97298 3.92996 13.6359
rtibia 14.5467
rfoot -9.29208 -8.6598
rtoes -1.33451
lfemur -7.89645 -0.112864 -21.162
ltibia 22.2869
lfoot -12.9012 3.92267
ltoes -7.7971
401
root 7.20597 18.0565 7.13065 -176.947 7.77692 181.397
lowerback 1.27606 1.36759 -1.46954
upperback 0.814208 1.81949 0.21458
thorax 0.0660084 0.909148 1.02014
lowerneck -16.5193 -4.57581 -11.8674
upperneck 13.7569 -3.80071 3.20519
head 7.24139 -2.13259 2.54297
rclavicle -2.55935e-014 3.57812e-015
rhumerus -30.2066 -13.7687 -80.9801
rradius 25.2719
rwrist -7.08389
rhand -12.8826 22.5044
rfingers 7.12502
rthumb 13.2064 -7.05729
lclavicle -2.55935e-014 3.57812e-015
lhumerus -30.9909 16.0886 76.7864
lradius 28.1216
lwrist -11.33
lhand 1.84614 38.7191
lfingers 7.12502
lthumb 27.3574 66.7536
rfemur -3.76225 4.02058 13.5636
rtibia 14.384
rfoot -9.29423 -8.59178
rtoes -2.18464
lfemur -7.77064 -0.035547 -21.2376
ltibia 22.2532
lfoot -12.7255 3.90709
ltoes -7.34984
402
root 7.2088 18.06 7.12056 -176.815 7.79202 181.391
lowerback 0.977474 1.38403 -1.56946
upperback 0.782539 1.84349 0.222209
thorax 0.196741 0.91917 1.09102
lowerneck -16.6625 -4.56026 -11.6267
upperneck 14.3373 -3.71895 2.76033
head 7.43931 -2.12866 2.36618
rclavicle -1.13556e-014 5.96354e-016
rhumerus -30.1287 -13.8292 -81.0069
rradius 25.3189
rwrist -7.09332
rhand -12.5027 22.4647
rfingers 7.12502
rthumb 13.5725 -7.0729
lclavicle -1.13556e-014 5.96354e-016
lhumerus -30.9242 15.8515 76.8322
lradius 28.2075
lwrist -11.0625
lhand 1.68826 38.6025
lfingers 7.12502
lthumb 27.2064 66.6607
rfemur -3.69824 4.03291 13.5511
rtibia 14.059
rfoot -9.14809 -8.57771
rtoes -3.23678
lfemur -7.86642 0.146447 -21.2319
ltibia 22.2626
lfoot -12.9169 3.73921
ltoes -8.10944
403
root 7.22479 18.072 7.10635 -176.312 7.74822 181.58
lowerback 0.292858 1.31271 -1.69192
upperback 0.665899 1.75453 0.373439
thorax 0.455178 0.870529 1.33092
lowerneck -16.8813 -4.49937 -11.9789
upperneck 15.0212 -3.51913 2.87561
head 7.69992 -2.05293 2.48398
rclavicle 3.07122e-014 3.18055e-015
rhumerus -30.0207 -13.508 -81.0754
rradius 25.476
rwrist -7.18205
rhand -12.4375 22.1734
rfingers 7.12502
rthumb 13.6354 -7.35995
lclavicle 3.07122e-014 3.18055e-015
lhumerus -30.8515 15.951 76.8522
lradius 28.2819
lwrist -10.9429
lhand 1.76141 38.8535
lfingers 7.12502
lthumb 27.2764 66.9007
rfemur -4.07649 4.23168 13.8168
rtibia 13.8913
rfoot -9.22617 -8.9613
rtoes -1.7643
lfemur -8.31274 0.468698 -20.9244
ltibia 22.2309
lfoot -13.1223 3.28798
ltoes -7.55852
404
root 7.22123 18.0731 7.10262 -176.382 7.79942 181.492
lowerback 0.250388 1.2635 -1.83139
upperback 0.729843 1.69082 0.420066
thorax 0.541377 0.836861 1.45882
lowerneck -16.9474 -4.43959 -12.3539
upperneck 15.2786 -3.35854 3.06091
head 7.79638 -1.98401 2.62598
rclavicle -1.41758e-014 -3.18055e-015
rhumerus -29.7498 -12.9213 -81.1954
rradius 25.5777
rwrist -7.46548
rhand -13.0734 22.0036
rfingers 7.12502
rthumb 13.0225 -7.56997
lclavicle -1.41758e-014 -3.18055e-015
lhumerus -30.6496 16.2097 76.8977
lradius 28.3505
lwrist -10.9963
lhand 1.8847 39.0081
lfingers 7.12502
lthumb 27.3943 67.0368
rfemur -4.01769 4.18936 13.7083
rtibia 13.8338
rfoot -9.23355 -8.95202
rtoes -0.976241
lfemur -8.21295 0.524383 -21.0272
ltibia 22.1925
lfoot -13.143 3.21655
ltoes -5.98377
405
root 7.19302 18.057 7.10785 -176.967 7.65271 181.068
lowerback 0.816731 1.31147 -1.86512
upperback 0.91123 1.7515 0.161109
thorax 0.41461 0.870055 1.20097
lowerneck -16.9302 -4.51278 -12.0827
upperneck 15.4682 -3.485 2.86318
head 7.85812 -2.05085 2.50178
rclavicle -1.68222e-014 -4.17448e-015
rhumerus -29.549 -13.0197 -81.3178
rradius 25.687
rwrist -7.78415
rhand -13.5549 22.0187
rfingers 7.12502
rthumb 12.5583 -7.58392
lclavicle -1.68222e-014 -4.17448e-015
lhumerus -30.317 15.808 76.9686
lradius 28.474
lwrist -10.9535
lhand 1.83418 38.8331
lfingers 7.12502
lthumb 27.346 66.8694
rfemur -3.47847 3.65661 13.1521
rtibia 13.8275
rfoot -9.14703 -8.51391
rtoes -2.33824
lfemur -7.68128 0.156937 -21.6306
ltibia 22.1776
lfoot -13.0737 3.56832
ltoes -8.1708
